HIERARCHY
ROOT Hips
{
	OFFSET 0.000000 0.000000 0.000000
	CHANNELS 6 Xposition Yposition Zposition Zrotation Yrotation Xrotation 
	JOINT LHipJoint
	{
		OFFSET 0.000000 0.000000 0.000000
		CHANNELS 3 Zrotation Yrotation Xrotation
		JOINT LeftUpLeg
		{
			OFFSET 1.363060 -1.794630 0.839290
			CHANNELS 3 Zrotation Yrotation Xrotation
			JOINT LeftLeg
			{
				OFFSET 2.448110 -6.726130 0.000000
				CHANNELS 3 Zrotation Yrotation Xrotation
				JOINT LeftFoot
				{
					OFFSET 2.562200 -7.039590 0.000000
					CHANNELS 3 Zrotation Yrotation Xrotation
					JOINT LeftToeBase
					{
						OFFSET 0.157640 -0.433110 2.322550
						CHANNELS 3 Zrotation Yrotation Xrotation
						End Site
						{
							OFFSET 0.000000 0.000000 0.000000
						}
					}
				}
			}
		}
	}
	JOINT RHipJoint
	{
		OFFSET 0.000000 0.000000 0.000000
		CHANNELS 3 Zrotation Yrotation Xrotation
		JOINT RightUpLeg
		{
			OFFSET -1.305520 -1.794630 0.839290
			CHANNELS 3 Zrotation Yrotation Xrotation
			JOINT RightLeg
			{
				OFFSET -2.542530 -6.985550 0.000000
				CHANNELS 3 Zrotation Yrotation Xrotation
				JOINT RightFoot
				{
					OFFSET -2.568260 -7.056230 0.000000
					CHANNELS 3 Zrotation Yrotation Xrotation
					JOINT RightToeBase
					{
						OFFSET -0.164730 -0.452590 2.363150
						CHANNELS 3 Zrotation Yrotation Xrotation
						End Site
						{
							OFFSET 0.000000 0.000000 0.000000
						}
					}
				}
			}
		}
	}
	JOINT LowerBack
	{
		OFFSET 0.000000 0.000000 0.000000
		CHANNELS 3 Zrotation Yrotation Xrotation
		JOINT Spine
		{
			OFFSET 0.028270 2.035590 -0.193380
			CHANNELS 3 Zrotation Yrotation Xrotation
			JOINT Spine1
			{
				OFFSET 0.056720 2.048850 -0.042750
				CHANNELS 3 Zrotation Yrotation Xrotation
				JOINT Neck
				{
					OFFSET 0.000000 0.000000 0.000000
					CHANNELS 3 Zrotation Yrotation Xrotation
					JOINT Neck1
					{
						OFFSET -0.054170 1.746240 0.172020
						CHANNELS 3 Zrotation Yrotation Xrotation
						JOINT Head
						{
							OFFSET 0.104070 1.761360 -0.123970
							CHANNELS 3 Zrotation Yrotation Xrotation
							End Site
							{
								OFFSET 0.000000 0.000000 0.000000
							}
						}
					}
				}
				JOINT LeftShoulder
				{
					OFFSET 0.000000 0.000000 0.000000
					CHANNELS 3 Zrotation Yrotation Xrotation
					JOINT LeftArm
					{
						OFFSET 3.362410 1.200890 -0.311210
						CHANNELS 3 Zrotation Yrotation Xrotation
						JOINT LeftForeArm
						{
							OFFSET 4.983000 -0.000000 -0.000000
							CHANNELS 3 Zrotation Yrotation Xrotation
							JOINT LeftHand
							{
								OFFSET 3.483560 -0.000000 -0.000000
								CHANNELS 3 Zrotation Yrotation Xrotation
								JOINT LeftFingerBase
								{
									OFFSET 0.000000 0.000000 0.000000
									CHANNELS 3 Zrotation Yrotation Xrotation
									JOINT LeftHandIndex1
									{
										OFFSET 0.715260 -0.000000 -0.000000
										CHANNELS 3 Zrotation Yrotation Xrotation
										End Site
										{
											OFFSET 0.000000 0.000000 0.000000
										}
									}
								}
								JOINT LThumb
								{
									OFFSET 0.000000 0.000000 0.000000
									CHANNELS 3 Zrotation Yrotation Xrotation
									End Site
									{
										OFFSET 0.000000 0.000000 0.000000
									}
								}
							}
						}
					}
				}
				JOINT RightShoulder
				{
					OFFSET 0.000000 0.000000 0.000000
					CHANNELS 3 Zrotation Yrotation Xrotation
					JOINT RightArm
					{
						OFFSET -3.136600 1.374050 -0.404650
						CHANNELS 3 Zrotation Yrotation Xrotation
						JOINT RightForeArm
						{
							OFFSET -5.241900 -0.000000 -0.000000
							CHANNELS 3 Zrotation Yrotation Xrotation
							JOINT RightHand
							{
								OFFSET -3.444170 -0.000000 -0.000000
								CHANNELS 3 Zrotation Yrotation Xrotation
								JOINT RightFingerBase
								{
									OFFSET 0.000000 0.000000 0.000000
									CHANNELS 3 Zrotation Yrotation Xrotation
									JOINT RightHandIndex1
									{
										OFFSET -0.622530 -0.000000 -0.000000
										CHANNELS 3 Zrotation Yrotation Xrotation
										End Site
										{
											OFFSET 0.000000 0.000000 0.000000
										}
									}
								}
								JOINT RThumb
								{
									OFFSET 0.000000 0.000000 0.000000
									CHANNELS 3 Zrotation Yrotation Xrotation
									End Site
									{
										OFFSET 0.000000 0.000000 0.000000
									}
								}
							}
						}
					}
				}
			}
		}
	}
}
MOTION
Frames: 9
Frame Time: 0.008333
24.387050 16.204189 4.614802 -128.280905 -86.087919 150.183121 -12.255995 4.333883 0.017018 -1.430727 7.527290 4.802694 -0.306448 0.793470 15.644953 0.944573 6.020065 12.608985 1.804800 -0.000000 -86.278500 6.778956 -1.488231 6.715705 9.727689 14.581436 -56.778974 2.541820 -1.241524 22.480285 -0.924053 -4.722221 3.929453 -2.143800 0.000000 -30.972800 10.943483 -5.183976 -5.633483 1.979688 -6.329758 -4.042927 -6.653228 -6.488497 0.727486 8.878399 -11.313490 -7.269739 -3.440372 -0.268784 0.136468 0.000000 0.000000 0.000000 -5.763798 -2.302483 1.849905 -60.547557 -28.559722 19.046058 -2.411791 -53.432644 -0.022951 5.146205 -1.610191 -0.088402 -0.146217 0.348445 -0.000000 0.000000 0.000000 0.000000 0.000000 0.000000 0.000000 14.242072 -12.166756 2.324658 54.220233 -15.085929 -32.219316 4.128898 3.038626 0.006799 -1.635976 3.503773 -0.055713 0.147332 -0.076470 -0.000000 0.000000 0.000000 0.000000 0.000000 0.000000 0.000000 
24.182519 16.232863 4.587599 -125.952443 -85.909378 147.901943 -12.442611 4.299502 0.061446 -0.934608 7.596095 3.876827 -0.074181 0.907198 17.720530 1.067142 6.230273 14.892808 2.004200 0.000000 -84.811300 6.639603 -1.633032 6.673614 10.293796 14.803173 -56.484709 2.537096 -1.368506 23.616647 -0.930486 -4.592828 3.275984 -2.028900 -0.000000 -29.931200 11.366730 -5.160952 -5.657756 2.065312 -6.347122 -4.066266 -6.652980 -6.508530 0.684237 8.848935 -11.094871 -7.245557 -3.461808 -0.270654 0.141830 0.000000 0.000000 0.000000 -5.963890 -2.345563 1.862303 -61.020518 -27.668217 18.919287 -2.434470 -52.736204 -0.023686 5.380916 -1.698567 -0.096452 -0.146576 0.342590 -0.000000 0.000000 0.000000 0.000000 0.000000 0.000000 0.000000 14.238847 -11.979879 2.325031 54.184365 -14.328656 -31.797367 4.134154 3.157670 0.006801 -1.625900 3.516870 -0.055608 0.146509 -0.076572 -0.000000 0.000000 0.000000 0.000000 0.000000 0.000000 0.000000 
23.980729 16.263290 4.558394 -124.149386 -85.724117 146.123563 -12.613297 4.246083 0.088853 -0.476511 7.759731 2.831195 0.138494 1.001110 19.963402 1.207943 6.460344 17.039043 2.200300 0.000000 -82.365999 6.524183 -1.756422 6.621683 10.866442 14.965540 -56.058810 2.555441 -1.471145 24.591675 -0.917311 -4.349773 2.486973 -1.873200 -0.000000 -28.779200 11.734398 -5.128248 -5.659554 2.135056 -6.348997 -4.082562 -6.660345 -6.512290 0.646112 8.844182 -10.867495 -7.213930 -3.487468 -0.272859 0.149168 0.000000 0.000000 0.000000 -6.124010 -2.386564 1.871851 -61.503868 -26.790141 18.820021 -2.458520 -51.889087 -0.024281 5.605334 -1.758700 -0.103213 -0.146436 0.335273 -0.000000 0.000000 0.000000 0.000000 0.000000 0.000000 0.000000 14.284093 -11.785303 2.317907 54.191580 -13.525358 -31.311652 4.140571 3.276560 0.006808 -1.629130 3.535579 -0.056003 0.145679 -0.076463 -0.000000 0.000000 0.000000 0.000000 0.000000 0.000000 0.000000 
23.782213 16.295395 4.527130 -122.801404 -85.536440 144.781910 -12.761830 4.170859 0.098647 -0.067565 8.006709 1.672540 0.323580 1.075008 22.351788 1.362921 6.767221 18.943485 2.415000 -0.000000 -79.006600 6.433165 -1.860296 6.566134 11.433281 15.077377 -55.512671 2.592303 -1.548537 25.393142 -0.893283 -4.038854 1.604676 -1.697500 -0.000001 -27.534700 12.044475 -5.085292 -5.644752 2.188504 -6.335138 -4.092577 -6.676116 -6.499543 0.614493 8.865652 -10.631556 -7.174802 -3.518177 -0.275469 0.158587 0.000000 0.000000 0.000000 -6.245493 -2.420030 1.878902 -61.995912 -25.934454 18.745343 -2.483988 -50.892540 -0.024704 5.813689 -1.783365 -0.107883 -0.145768 0.326519 -0.000000 0.000000 0.000000 0.000000 0.000000 0.000000 0.000000 14.383659 -11.582798 2.302144 54.238017 -12.679658 -30.762558 4.148040 3.394735 0.006819 -1.651050 3.563396 -0.057097 0.144862 -0.076148 -0.000000 0.000000 0.000000 0.000000 0.000000 0.000000 0.000000 
23.587466 16.329202 4.493041 -122.092186 -85.357284 144.065342 -12.870924 4.079926 0.092264 0.243623 8.302484 0.418156 0.473036 1.133856 24.850044 1.528297 7.237779 20.519885 2.690499 -0.000000 -74.981001 6.380559 -1.936424 6.506358 11.960857 15.126159 -54.874066 2.638637 -1.603377 26.040042 -0.862661 -3.683404 0.669763 -1.514100 -0.000000 -26.300600 12.270305 -5.031805 -5.615552 2.219474 -6.303406 -4.095835 -6.702401 -6.468072 0.590583 8.921405 -10.385758 -7.128622 -3.555522 -0.278596 0.170031 0.000000 0.000000 0.000000 -6.319249 -2.441151 1.883526 -62.489404 -25.104456 18.689321 -2.510521 -49.756830 -0.024932 5.998732 -1.764175 -0.109763 -0.144528 0.316311 -0.000000 0.000000 0.000000 0.000000 0.000000 0.000000 0.000000 14.554510 -11.370360 2.276488 54.320710 -11.794446 -30.161489 4.155693 3.507440 0.006848 -1.692580 3.606387 -0.058991 0.144036 -0.075661 -0.000000 0.000000 0.000000 0.000000 0.000000 0.000000 0.000000 
23.396087 16.364752 4.458334 -121.404119 -85.168186 143.362551 -12.970135 3.961300 0.062991 0.543886 8.686340 -0.953296 0.590317 1.182558 27.470607 1.691916 7.840505 21.660329 3.011300 -0.000000 -70.214200 6.328531 -2.012074 6.460848 12.494664 15.173336 -54.127113 2.700154 -1.628899 26.468608 -0.841172 -3.370233 -0.264169 -1.351000 -0.000000 -24.987400 12.476426 -4.965651 -5.581274 2.242794 -6.257326 -4.096608 -6.735688 -6.421817 0.571253 8.991986 -10.126919 -7.072978 -3.598596 -0.282221 0.184086 0.000000 0.000000 0.000000 -6.372027 -2.454985 1.887135 -62.996730 -24.294837 18.631722 -2.537263 -48.491925 -0.025000 6.164070 -1.711160 -0.109350 -0.142701 0.305121 -0.000000 0.000000 0.000000 0.000000 0.000000 0.000000 0.000000 14.767600 -11.143471 2.244404 54.435373 -10.885003 -29.434231 4.165458 3.656661 0.006825 -1.773578 3.642417 -0.062185 0.143339 -0.074839 -0.000000 0.000000 0.000000 0.000000 0.000000 0.000000 0.000000 
23.208617 16.402165 4.421752 -121.154321 -84.983213 143.090792 -13.034488 3.829411 0.016354 0.753411 9.091514 -2.403097 0.674744 1.230555 30.145326 1.856284 8.682127 22.364498 3.430000 -0.000000 -65.483000 6.302301 -2.069528 6.419379 12.986900 15.185857 -53.306493 2.764826 -1.631752 26.728226 -0.825902 -3.089060 -1.164353 -1.205400 -0.000000 -23.789700 12.619733 -4.888337 -5.538029 2.248738 -6.194756 -4.092404 -6.778228 -6.358456 0.559304 9.086571 -9.849328 -7.010130 -3.648244 -0.286357 0.200051 0.000000 0.000000 0.000000 -6.400816 -2.443391 1.891885 -63.492792 -23.520529 18.575017 -2.564561 -47.118639 -0.024890 6.301357 -1.608876 -0.105339 -0.140341 0.292890 -0.000000 0.000000 0.000000 0.000000 0.000000 0.000000 0.000000 15.038570 -10.895418 2.204297 54.582043 -9.932708 -28.698075 4.172865 3.783543 0.006852 -1.876952 3.710710 -0.066678 0.142572 -0.074056 -0.000000 0.000000 0.000000 0.000000 0.000000 0.000000 0.000000 
23.024856 16.441457 4.384019 -121.205073 -84.798568 143.116162 -13.070951 3.685943 -0.048011 0.887410 9.510019 -3.929497 0.731319 1.285412 32.861562 2.016348 9.739784 22.594122 3.926300 -0.000000 -60.821900 6.293089 -2.114765 6.384892 13.442642 15.178471 -52.420414 2.831296 -1.612411 26.816043 -0.820216 -2.863767 -1.999856 -1.082800 0.000000 -22.741000 12.714627 -4.799587 -5.487233 2.240714 -6.116511 -4.084645 -6.828945 -6.279025 0.552042 9.199193 -9.549902 -6.939306 -3.704546 -0.291022 0.218048 0.000000 0.000000 0.000000 -6.410592 -2.411408 1.898387 -63.979502 -22.770681 18.500223 -2.591230 -45.658524 -0.024628 6.413895 -1.467271 -0.098432 -0.137439 0.279973 -0.000000 0.000000 0.000000 0.000000 0.000000 0.000000 0.000000 15.359516 -10.621641 2.158819 54.760403 -8.950493 -27.895343 4.178634 3.923134 0.006879 -2.013924 3.794099 -0.072769 0.141805 -0.073182 -0.000000 0.000000 0.000000 0.000000 0.000000 0.000000 0.000000 
22.845116 16.482667 4.345660 -121.473477 -84.612237 143.355864 -13.084528 3.532590 -0.126522 0.951974 9.916105 -5.517911 0.768309 1.351615 35.581908 2.173622 11.001574 22.381114 4.482800 0.000000 -56.709601 6.294872 -2.151018 6.356859 13.864435 15.159860 -51.474645 2.898316 -1.572227 26.735986 -0.824580 -2.703116 -2.749424 -0.983800 -0.000000 -21.858200 12.773236 -4.700226 -5.429809 2.221926 -6.024320 -4.074427 -6.885977 -6.185447 0.547284 9.321253 -9.221717 -6.859227 -3.766708 -0.296163 0.238313 0.000000 0.000000 0.000000 -6.414338 -2.358813 1.908583 -64.447707 -22.038714 18.394893 -2.616322 -44.139475 -0.024254 6.503367 -1.288558 -0.088729 -0.134013 0.266656 -0.000000 0.000000 0.000000 0.000000 0.000000 0.000000 0.000000 15.715659 -10.314238 2.110074 54.971938 -7.936295 -27.062385 4.181228 4.062105 0.006938 -2.177963 3.906409 -0.080460 0.140974 -0.072389 -0.000000 0.000000 0.000000 0.000000 0.000000 0.000000 0.000000 
